<svg xmlns="http://www.w3.org/2000/svg" width="1032" height="456" viewBox="0 0 1032 456" font-family="Helvetica,Arial,sans-serif">
<rect width="1032" height="456" fill="#fcfcfb"/>
<text x="190" y="28" font-size="12.5" font-weight="bold" fill="#0b0b0b">player 1 (top card on the left)</text>
<text x="572" y="28" font-size="12.5" font-weight="bold" fill="#0b0b0b">player 2</text>
<text x="20" y="73.0" font-size="12.5" fill="#0b0b0b">start</text>
<rect x="190" y="57" width="20" height="24" rx="3" fill="#0d366b"/>
<text x="200.0" y="73.5" font-size="12.5" font-weight="bold" fill="#ffffff" text-anchor="middle">A</text>
<rect x="212" y="57" width="20" height="24" rx="3" fill="#1c5cab"/>
<text x="222.0" y="73.5" font-size="12.5" font-weight="bold" fill="#ffffff" text-anchor="middle">B</text>
<rect x="234" y="57" width="20" height="24" rx="3" fill="#1c5cab"/>
<text x="244.0" y="73.5" font-size="12.5" font-weight="bold" fill="#ffffff" text-anchor="middle">B</text>
<rect x="256" y="57" width="20" height="24" rx="3" fill="#3987e5"/>
<text x="266.0" y="73.5" font-size="12.5" font-weight="bold" fill="#ffffff" text-anchor="middle">C</text>
<rect x="278" y="57" width="20" height="24" rx="3" fill="#0d366b"/>
<text x="288.0" y="73.5" font-size="12.5" font-weight="bold" fill="#ffffff" text-anchor="middle">A</text>
<rect x="300" y="57" width="20" height="24" rx="3" fill="#1c5cab"/>
<text x="310.0" y="73.5" font-size="12.5" font-weight="bold" fill="#ffffff" text-anchor="middle">B</text>
<rect x="322" y="57" width="20" height="24" rx="3" fill="#1c5cab"/>
<text x="332.0" y="73.5" font-size="12.5" font-weight="bold" fill="#ffffff" text-anchor="middle">B</text>
<rect x="344" y="57" width="20" height="24" rx="3" fill="#3987e5"/>
<text x="354.0" y="73.5" font-size="12.5" font-weight="bold" fill="#ffffff" text-anchor="middle">C</text>
<rect x="366" y="57" width="20" height="24" rx="3" fill="#0d366b"/>
<text x="376.0" y="73.5" font-size="12.5" font-weight="bold" fill="#ffffff" text-anchor="middle">A</text>
<rect x="388" y="57" width="20" height="24" rx="3" fill="#1c5cab"/>
<text x="398.0" y="73.5" font-size="12.5" font-weight="bold" fill="#ffffff" text-anchor="middle">B</text>
<rect x="410" y="57" width="20" height="24" rx="3" fill="#1c5cab"/>
<text x="420.0" y="73.5" font-size="12.5" font-weight="bold" fill="#ffffff" text-anchor="middle">B</text>
<rect x="432" y="57" width="20" height="24" rx="3" fill="#3987e5"/>
<text x="442.0" y="73.5" font-size="12.5" font-weight="bold" fill="#ffffff" text-anchor="middle">C</text>
<rect x="572" y="57" width="20" height="24" rx="3" fill="#86b6ef"/>
<text x="582.0" y="73.5" font-size="12.5" font-weight="bold" fill="#0b0b0b" text-anchor="middle">D</text>
<rect x="594" y="57" width="20" height="24" rx="3" fill="#cde2fb"/>
<text x="604.0" y="73.5" font-size="12.5" font-weight="bold" fill="#0b0b0b" text-anchor="middle">E</text>
<rect x="616" y="57" width="20" height="24" rx="3" fill="#0d366b"/>
<text x="626.0" y="73.5" font-size="12.5" font-weight="bold" fill="#ffffff" text-anchor="middle">A</text>
<rect x="638" y="57" width="20" height="24" rx="3" fill="#1c5cab"/>
<text x="648.0" y="73.5" font-size="12.5" font-weight="bold" fill="#ffffff" text-anchor="middle">B</text>
<rect x="660" y="57" width="20" height="24" rx="3" fill="#1c5cab"/>
<text x="670.0" y="73.5" font-size="12.5" font-weight="bold" fill="#ffffff" text-anchor="middle">B</text>
<rect x="682" y="57" width="20" height="24" rx="3" fill="#3987e5"/>
<text x="692.0" y="73.5" font-size="12.5" font-weight="bold" fill="#ffffff" text-anchor="middle">C</text>
<rect x="704" y="57" width="20" height="24" rx="3" fill="#0d366b"/>
<text x="714.0" y="73.5" font-size="12.5" font-weight="bold" fill="#ffffff" text-anchor="middle">A</text>
<rect x="726" y="57" width="20" height="24" rx="3" fill="#1c5cab"/>
<text x="736.0" y="73.5" font-size="12.5" font-weight="bold" fill="#ffffff" text-anchor="middle">B</text>
<rect x="748" y="57" width="20" height="24" rx="3" fill="#1c5cab"/>
<text x="758.0" y="73.5" font-size="12.5" font-weight="bold" fill="#ffffff" text-anchor="middle">B</text>
<rect x="770" y="57" width="20" height="24" rx="3" fill="#3987e5"/>
<text x="780.0" y="73.5" font-size="12.5" font-weight="bold" fill="#ffffff" text-anchor="middle">C</text>
<rect x="792" y="57" width="20" height="24" rx="3" fill="#0d366b"/>
<text x="802.0" y="73.5" font-size="12.5" font-weight="bold" fill="#ffffff" text-anchor="middle">A</text>
<rect x="814" y="57" width="20" height="24" rx="3" fill="#1c5cab"/>
<text x="824.0" y="73.5" font-size="12.5" font-weight="bold" fill="#ffffff" text-anchor="middle">B</text>
<rect x="836" y="57" width="20" height="24" rx="3" fill="#1c5cab"/>
<text x="846.0" y="73.5" font-size="12.5" font-weight="bold" fill="#ffffff" text-anchor="middle">B</text>
<rect x="858" y="57" width="20" height="24" rx="3" fill="#3987e5"/>
<text x="868.0" y="73.5" font-size="12.5" font-weight="bold" fill="#ffffff" text-anchor="middle">C</text>
<rect x="880" y="57" width="20" height="24" rx="3" fill="#3987e5"/>
<text x="890.0" y="73.5" font-size="12.5" font-weight="bold" fill="#ffffff" text-anchor="middle">C</text>
<rect x="902" y="57" width="20" height="24" rx="3" fill="#86b6ef"/>
<text x="912.0" y="73.5" font-size="12.5" font-weight="bold" fill="#0b0b0b" text-anchor="middle">D</text>
<rect x="924" y="57" width="20" height="24" rx="3" fill="#86b6ef"/>
<text x="934.0" y="73.5" font-size="12.5" font-weight="bold" fill="#0b0b0b" text-anchor="middle">D</text>
<rect x="946" y="57" width="20" height="24" rx="3" fill="#cde2fb"/>
<text x="956.0" y="73.5" font-size="12.5" font-weight="bold" fill="#0b0b0b" text-anchor="middle">E</text>
<rect x="878" y="55" width="90" height="28" rx="4" fill="none" stroke="#eb6834" stroke-width="2.5"/>
<rect x="570" y="55" width="46" height="28" rx="4" fill="none" stroke="#eb6834" stroke-width="2.5"/>
<text x="20" y="147.0" font-size="12.5" fill="#0b0b0b">after 2 turns</text>
<rect x="190" y="131" width="20" height="24" rx="3" fill="#1c5cab"/>
<text x="200.0" y="147.5" font-size="12.5" font-weight="bold" fill="#ffffff" text-anchor="middle">B</text>
<rect x="212" y="131" width="20" height="24" rx="3" fill="#3987e5"/>
<text x="222.0" y="147.5" font-size="12.5" font-weight="bold" fill="#ffffff" text-anchor="middle">C</text>
<rect x="234" y="131" width="20" height="24" rx="3" fill="#0d366b"/>
<text x="244.0" y="147.5" font-size="12.5" font-weight="bold" fill="#ffffff" text-anchor="middle">A</text>
<rect x="256" y="131" width="20" height="24" rx="3" fill="#1c5cab"/>
<text x="266.0" y="147.5" font-size="12.5" font-weight="bold" fill="#ffffff" text-anchor="middle">B</text>
<rect x="278" y="131" width="20" height="24" rx="3" fill="#1c5cab"/>
<text x="288.0" y="147.5" font-size="12.5" font-weight="bold" fill="#ffffff" text-anchor="middle">B</text>
<rect x="300" y="131" width="20" height="24" rx="3" fill="#3987e5"/>
<text x="310.0" y="147.5" font-size="12.5" font-weight="bold" fill="#ffffff" text-anchor="middle">C</text>
<rect x="322" y="131" width="20" height="24" rx="3" fill="#0d366b"/>
<text x="332.0" y="147.5" font-size="12.5" font-weight="bold" fill="#ffffff" text-anchor="middle">A</text>
<rect x="344" y="131" width="20" height="24" rx="3" fill="#1c5cab"/>
<text x="354.0" y="147.5" font-size="12.5" font-weight="bold" fill="#ffffff" text-anchor="middle">B</text>
<rect x="366" y="131" width="20" height="24" rx="3" fill="#1c5cab"/>
<text x="376.0" y="147.5" font-size="12.5" font-weight="bold" fill="#ffffff" text-anchor="middle">B</text>
<rect x="388" y="131" width="20" height="24" rx="3" fill="#3987e5"/>
<text x="398.0" y="147.5" font-size="12.5" font-weight="bold" fill="#ffffff" text-anchor="middle">C</text>
<rect x="410" y="131" width="20" height="24" rx="3" fill="#0d366b"/>
<text x="420.0" y="147.5" font-size="12.5" font-weight="bold" fill="#ffffff" text-anchor="middle">A</text>
<rect x="432" y="131" width="20" height="24" rx="3" fill="#86b6ef"/>
<text x="442.0" y="147.5" font-size="12.5" font-weight="bold" fill="#0b0b0b" text-anchor="middle">D</text>
<rect x="454" y="131" width="20" height="24" rx="3" fill="#1c5cab"/>
<text x="464.0" y="147.5" font-size="12.5" font-weight="bold" fill="#ffffff" text-anchor="middle">B</text>
<rect x="476" y="131" width="20" height="24" rx="3" fill="#cde2fb"/>
<text x="486.0" y="147.5" font-size="12.5" font-weight="bold" fill="#0b0b0b" text-anchor="middle">E</text>
<rect x="408" y="129" width="90" height="28" rx="4" fill="none" stroke="#eb6834" stroke-width="2.5"/>
<rect x="572" y="131" width="20" height="24" rx="3" fill="#0d366b"/>
<text x="582.0" y="147.5" font-size="12.5" font-weight="bold" fill="#ffffff" text-anchor="middle">A</text>
<rect x="594" y="131" width="20" height="24" rx="3" fill="#1c5cab"/>
<text x="604.0" y="147.5" font-size="12.5" font-weight="bold" fill="#ffffff" text-anchor="middle">B</text>
<rect x="616" y="131" width="20" height="24" rx="3" fill="#1c5cab"/>
<text x="626.0" y="147.5" font-size="12.5" font-weight="bold" fill="#ffffff" text-anchor="middle">B</text>
<rect x="638" y="131" width="20" height="24" rx="3" fill="#3987e5"/>
<text x="648.0" y="147.5" font-size="12.5" font-weight="bold" fill="#ffffff" text-anchor="middle">C</text>
<rect x="660" y="131" width="20" height="24" rx="3" fill="#0d366b"/>
<text x="670.0" y="147.5" font-size="12.5" font-weight="bold" fill="#ffffff" text-anchor="middle">A</text>
<rect x="682" y="131" width="20" height="24" rx="3" fill="#1c5cab"/>
<text x="692.0" y="147.5" font-size="12.5" font-weight="bold" fill="#ffffff" text-anchor="middle">B</text>
<rect x="704" y="131" width="20" height="24" rx="3" fill="#1c5cab"/>
<text x="714.0" y="147.5" font-size="12.5" font-weight="bold" fill="#ffffff" text-anchor="middle">B</text>
<rect x="726" y="131" width="20" height="24" rx="3" fill="#3987e5"/>
<text x="736.0" y="147.5" font-size="12.5" font-weight="bold" fill="#ffffff" text-anchor="middle">C</text>
<rect x="748" y="131" width="20" height="24" rx="3" fill="#0d366b"/>
<text x="758.0" y="147.5" font-size="12.5" font-weight="bold" fill="#ffffff" text-anchor="middle">A</text>
<rect x="770" y="131" width="20" height="24" rx="3" fill="#1c5cab"/>
<text x="780.0" y="147.5" font-size="12.5" font-weight="bold" fill="#ffffff" text-anchor="middle">B</text>
<rect x="792" y="131" width="20" height="24" rx="3" fill="#1c5cab"/>
<text x="802.0" y="147.5" font-size="12.5" font-weight="bold" fill="#ffffff" text-anchor="middle">B</text>
<rect x="814" y="131" width="20" height="24" rx="3" fill="#3987e5"/>
<text x="824.0" y="147.5" font-size="12.5" font-weight="bold" fill="#ffffff" text-anchor="middle">C</text>
<rect x="836" y="131" width="20" height="24" rx="3" fill="#3987e5"/>
<text x="846.0" y="147.5" font-size="12.5" font-weight="bold" fill="#ffffff" text-anchor="middle">C</text>
<rect x="858" y="131" width="20" height="24" rx="3" fill="#86b6ef"/>
<text x="868.0" y="147.5" font-size="12.5" font-weight="bold" fill="#0b0b0b" text-anchor="middle">D</text>
<rect x="880" y="131" width="20" height="24" rx="3" fill="#86b6ef"/>
<text x="890.0" y="147.5" font-size="12.5" font-weight="bold" fill="#0b0b0b" text-anchor="middle">D</text>
<rect x="902" y="131" width="20" height="24" rx="3" fill="#cde2fb"/>
<text x="912.0" y="147.5" font-size="12.5" font-weight="bold" fill="#0b0b0b" text-anchor="middle">E</text>
<rect x="834" y="129" width="90" height="28" rx="4" fill="none" stroke="#eb6834" stroke-width="2.5"/>
<text x="20" y="221.0" font-size="12.5" fill="#0b0b0b">after 6 turns</text>
<rect x="190" y="205" width="20" height="24" rx="3" fill="#1c5cab"/>
<text x="200.0" y="221.5" font-size="12.5" font-weight="bold" fill="#ffffff" text-anchor="middle">B</text>
<rect x="212" y="205" width="20" height="24" rx="3" fill="#3987e5"/>
<text x="222.0" y="221.5" font-size="12.5" font-weight="bold" fill="#ffffff" text-anchor="middle">C</text>
<rect x="234" y="205" width="20" height="24" rx="3" fill="#0d366b"/>
<text x="244.0" y="221.5" font-size="12.5" font-weight="bold" fill="#ffffff" text-anchor="middle">A</text>
<rect x="256" y="205" width="20" height="24" rx="3" fill="#1c5cab"/>
<text x="266.0" y="221.5" font-size="12.5" font-weight="bold" fill="#ffffff" text-anchor="middle">B</text>
<rect x="278" y="205" width="20" height="24" rx="3" fill="#1c5cab"/>
<text x="288.0" y="221.5" font-size="12.5" font-weight="bold" fill="#ffffff" text-anchor="middle">B</text>
<rect x="300" y="205" width="20" height="24" rx="3" fill="#3987e5"/>
<text x="310.0" y="221.5" font-size="12.5" font-weight="bold" fill="#ffffff" text-anchor="middle">C</text>
<rect x="322" y="205" width="20" height="24" rx="3" fill="#0d366b"/>
<text x="332.0" y="221.5" font-size="12.5" font-weight="bold" fill="#ffffff" text-anchor="middle">A</text>
<rect x="344" y="205" width="20" height="24" rx="3" fill="#86b6ef"/>
<text x="354.0" y="221.5" font-size="12.5" font-weight="bold" fill="#0b0b0b" text-anchor="middle">D</text>
<rect x="366" y="205" width="20" height="24" rx="3" fill="#1c5cab"/>
<text x="376.0" y="221.5" font-size="12.5" font-weight="bold" fill="#ffffff" text-anchor="middle">B</text>
<rect x="388" y="205" width="20" height="24" rx="3" fill="#cde2fb"/>
<text x="398.0" y="221.5" font-size="12.5" font-weight="bold" fill="#0b0b0b" text-anchor="middle">E</text>
<rect x="410" y="205" width="20" height="24" rx="3" fill="#0d366b"/>
<text x="420.0" y="221.5" font-size="12.5" font-weight="bold" fill="#ffffff" text-anchor="middle">A</text>
<rect x="432" y="205" width="20" height="24" rx="3" fill="#1c5cab"/>
<text x="442.0" y="221.5" font-size="12.5" font-weight="bold" fill="#ffffff" text-anchor="middle">B</text>
<rect x="454" y="205" width="20" height="24" rx="3" fill="#1c5cab"/>
<text x="464.0" y="221.5" font-size="12.5" font-weight="bold" fill="#ffffff" text-anchor="middle">B</text>
<rect x="476" y="205" width="20" height="24" rx="3" fill="#3987e5"/>
<text x="486.0" y="221.5" font-size="12.5" font-weight="bold" fill="#ffffff" text-anchor="middle">C</text>
<rect x="320" y="203" width="90" height="28" rx="4" fill="none" stroke="#eb6834" stroke-width="2.5"/>
<rect x="572" y="205" width="20" height="24" rx="3" fill="#0d366b"/>
<text x="582.0" y="221.5" font-size="12.5" font-weight="bold" fill="#ffffff" text-anchor="middle">A</text>
<rect x="594" y="205" width="20" height="24" rx="3" fill="#1c5cab"/>
<text x="604.0" y="221.5" font-size="12.5" font-weight="bold" fill="#ffffff" text-anchor="middle">B</text>
<rect x="616" y="205" width="20" height="24" rx="3" fill="#1c5cab"/>
<text x="626.0" y="221.5" font-size="12.5" font-weight="bold" fill="#ffffff" text-anchor="middle">B</text>
<rect x="638" y="205" width="20" height="24" rx="3" fill="#3987e5"/>
<text x="648.0" y="221.5" font-size="12.5" font-weight="bold" fill="#ffffff" text-anchor="middle">C</text>
<rect x="660" y="205" width="20" height="24" rx="3" fill="#0d366b"/>
<text x="670.0" y="221.5" font-size="12.5" font-weight="bold" fill="#ffffff" text-anchor="middle">A</text>
<rect x="682" y="205" width="20" height="24" rx="3" fill="#1c5cab"/>
<text x="692.0" y="221.5" font-size="12.5" font-weight="bold" fill="#ffffff" text-anchor="middle">B</text>
<rect x="704" y="205" width="20" height="24" rx="3" fill="#1c5cab"/>
<text x="714.0" y="221.5" font-size="12.5" font-weight="bold" fill="#ffffff" text-anchor="middle">B</text>
<rect x="726" y="205" width="20" height="24" rx="3" fill="#3987e5"/>
<text x="736.0" y="221.5" font-size="12.5" font-weight="bold" fill="#ffffff" text-anchor="middle">C</text>
<rect x="748" y="205" width="20" height="24" rx="3" fill="#3987e5"/>
<text x="758.0" y="221.5" font-size="12.5" font-weight="bold" fill="#ffffff" text-anchor="middle">C</text>
<rect x="770" y="205" width="20" height="24" rx="3" fill="#86b6ef"/>
<text x="780.0" y="221.5" font-size="12.5" font-weight="bold" fill="#0b0b0b" text-anchor="middle">D</text>
<rect x="792" y="205" width="20" height="24" rx="3" fill="#86b6ef"/>
<text x="802.0" y="221.5" font-size="12.5" font-weight="bold" fill="#0b0b0b" text-anchor="middle">D</text>
<rect x="814" y="205" width="20" height="24" rx="3" fill="#cde2fb"/>
<text x="824.0" y="221.5" font-size="12.5" font-weight="bold" fill="#0b0b0b" text-anchor="middle">E</text>
<rect x="836" y="205" width="20" height="24" rx="3" fill="#0d366b"/>
<text x="846.0" y="221.5" font-size="12.5" font-weight="bold" fill="#ffffff" text-anchor="middle">A</text>
<rect x="858" y="205" width="20" height="24" rx="3" fill="#1c5cab"/>
<text x="868.0" y="221.5" font-size="12.5" font-weight="bold" fill="#ffffff" text-anchor="middle">B</text>
<rect x="880" y="205" width="20" height="24" rx="3" fill="#1c5cab"/>
<text x="890.0" y="221.5" font-size="12.5" font-weight="bold" fill="#ffffff" text-anchor="middle">B</text>
<rect x="902" y="205" width="20" height="24" rx="3" fill="#3987e5"/>
<text x="912.0" y="221.5" font-size="12.5" font-weight="bold" fill="#ffffff" text-anchor="middle">C</text>
<rect x="746" y="203" width="90" height="28" rx="4" fill="none" stroke="#eb6834" stroke-width="2.5"/>
<text x="20" y="295.0" font-size="12.5" fill="#0b0b0b">after 10 turns</text>
<rect x="190" y="279" width="20" height="24" rx="3" fill="#1c5cab"/>
<text x="200.0" y="295.5" font-size="12.5" font-weight="bold" fill="#ffffff" text-anchor="middle">B</text>
<rect x="212" y="279" width="20" height="24" rx="3" fill="#3987e5"/>
<text x="222.0" y="295.5" font-size="12.5" font-weight="bold" fill="#ffffff" text-anchor="middle">C</text>
<rect x="234" y="279" width="20" height="24" rx="3" fill="#0d366b"/>
<text x="244.0" y="295.5" font-size="12.5" font-weight="bold" fill="#ffffff" text-anchor="middle">A</text>
<rect x="256" y="279" width="20" height="24" rx="3" fill="#86b6ef"/>
<text x="266.0" y="295.5" font-size="12.5" font-weight="bold" fill="#0b0b0b" text-anchor="middle">D</text>
<rect x="278" y="279" width="20" height="24" rx="3" fill="#1c5cab"/>
<text x="288.0" y="295.5" font-size="12.5" font-weight="bold" fill="#ffffff" text-anchor="middle">B</text>
<rect x="300" y="279" width="20" height="24" rx="3" fill="#cde2fb"/>
<text x="310.0" y="295.5" font-size="12.5" font-weight="bold" fill="#0b0b0b" text-anchor="middle">E</text>
<rect x="322" y="279" width="20" height="24" rx="3" fill="#0d366b"/>
<text x="332.0" y="295.5" font-size="12.5" font-weight="bold" fill="#ffffff" text-anchor="middle">A</text>
<rect x="344" y="279" width="20" height="24" rx="3" fill="#1c5cab"/>
<text x="354.0" y="295.5" font-size="12.5" font-weight="bold" fill="#ffffff" text-anchor="middle">B</text>
<rect x="366" y="279" width="20" height="24" rx="3" fill="#1c5cab"/>
<text x="376.0" y="295.5" font-size="12.5" font-weight="bold" fill="#ffffff" text-anchor="middle">B</text>
<rect x="388" y="279" width="20" height="24" rx="3" fill="#3987e5"/>
<text x="398.0" y="295.5" font-size="12.5" font-weight="bold" fill="#ffffff" text-anchor="middle">C</text>
<rect x="410" y="279" width="20" height="24" rx="3" fill="#0d366b"/>
<text x="420.0" y="295.5" font-size="12.5" font-weight="bold" fill="#ffffff" text-anchor="middle">A</text>
<rect x="432" y="279" width="20" height="24" rx="3" fill="#1c5cab"/>
<text x="442.0" y="295.5" font-size="12.5" font-weight="bold" fill="#ffffff" text-anchor="middle">B</text>
<rect x="454" y="279" width="20" height="24" rx="3" fill="#1c5cab"/>
<text x="464.0" y="295.5" font-size="12.5" font-weight="bold" fill="#ffffff" text-anchor="middle">B</text>
<rect x="476" y="279" width="20" height="24" rx="3" fill="#3987e5"/>
<text x="486.0" y="295.5" font-size="12.5" font-weight="bold" fill="#ffffff" text-anchor="middle">C</text>
<rect x="232" y="277" width="90" height="28" rx="4" fill="none" stroke="#eb6834" stroke-width="2.5"/>
<rect x="572" y="279" width="20" height="24" rx="3" fill="#0d366b"/>
<text x="582.0" y="295.5" font-size="12.5" font-weight="bold" fill="#ffffff" text-anchor="middle">A</text>
<rect x="594" y="279" width="20" height="24" rx="3" fill="#1c5cab"/>
<text x="604.0" y="295.5" font-size="12.5" font-weight="bold" fill="#ffffff" text-anchor="middle">B</text>
<rect x="616" y="279" width="20" height="24" rx="3" fill="#1c5cab"/>
<text x="626.0" y="295.5" font-size="12.5" font-weight="bold" fill="#ffffff" text-anchor="middle">B</text>
<rect x="638" y="279" width="20" height="24" rx="3" fill="#3987e5"/>
<text x="648.0" y="295.5" font-size="12.5" font-weight="bold" fill="#ffffff" text-anchor="middle">C</text>
<rect x="660" y="279" width="20" height="24" rx="3" fill="#3987e5"/>
<text x="670.0" y="295.5" font-size="12.5" font-weight="bold" fill="#ffffff" text-anchor="middle">C</text>
<rect x="682" y="279" width="20" height="24" rx="3" fill="#86b6ef"/>
<text x="692.0" y="295.5" font-size="12.5" font-weight="bold" fill="#0b0b0b" text-anchor="middle">D</text>
<rect x="704" y="279" width="20" height="24" rx="3" fill="#86b6ef"/>
<text x="714.0" y="295.5" font-size="12.5" font-weight="bold" fill="#0b0b0b" text-anchor="middle">D</text>
<rect x="726" y="279" width="20" height="24" rx="3" fill="#cde2fb"/>
<text x="736.0" y="295.5" font-size="12.5" font-weight="bold" fill="#0b0b0b" text-anchor="middle">E</text>
<rect x="748" y="279" width="20" height="24" rx="3" fill="#0d366b"/>
<text x="758.0" y="295.5" font-size="12.5" font-weight="bold" fill="#ffffff" text-anchor="middle">A</text>
<rect x="770" y="279" width="20" height="24" rx="3" fill="#1c5cab"/>
<text x="780.0" y="295.5" font-size="12.5" font-weight="bold" fill="#ffffff" text-anchor="middle">B</text>
<rect x="792" y="279" width="20" height="24" rx="3" fill="#1c5cab"/>
<text x="802.0" y="295.5" font-size="12.5" font-weight="bold" fill="#ffffff" text-anchor="middle">B</text>
<rect x="814" y="279" width="20" height="24" rx="3" fill="#3987e5"/>
<text x="824.0" y="295.5" font-size="12.5" font-weight="bold" fill="#ffffff" text-anchor="middle">C</text>
<rect x="836" y="279" width="20" height="24" rx="3" fill="#0d366b"/>
<text x="846.0" y="295.5" font-size="12.5" font-weight="bold" fill="#ffffff" text-anchor="middle">A</text>
<rect x="858" y="279" width="20" height="24" rx="3" fill="#1c5cab"/>
<text x="868.0" y="295.5" font-size="12.5" font-weight="bold" fill="#ffffff" text-anchor="middle">B</text>
<rect x="880" y="279" width="20" height="24" rx="3" fill="#1c5cab"/>
<text x="890.0" y="295.5" font-size="12.5" font-weight="bold" fill="#ffffff" text-anchor="middle">B</text>
<rect x="902" y="279" width="20" height="24" rx="3" fill="#3987e5"/>
<text x="912.0" y="295.5" font-size="12.5" font-weight="bold" fill="#ffffff" text-anchor="middle">C</text>
<rect x="658" y="277" width="90" height="28" rx="4" fill="none" stroke="#eb6834" stroke-width="2.5"/>
<text x="20" y="369.0" font-size="12.5" fill="#0b0b0b">after 16 turns: start again</text>
<rect x="190" y="353" width="20" height="24" rx="3" fill="#0d366b"/>
<text x="200.0" y="369.5" font-size="12.5" font-weight="bold" fill="#ffffff" text-anchor="middle">A</text>
<rect x="212" y="353" width="20" height="24" rx="3" fill="#1c5cab"/>
<text x="222.0" y="369.5" font-size="12.5" font-weight="bold" fill="#ffffff" text-anchor="middle">B</text>
<rect x="234" y="353" width="20" height="24" rx="3" fill="#1c5cab"/>
<text x="244.0" y="369.5" font-size="12.5" font-weight="bold" fill="#ffffff" text-anchor="middle">B</text>
<rect x="256" y="353" width="20" height="24" rx="3" fill="#3987e5"/>
<text x="266.0" y="369.5" font-size="12.5" font-weight="bold" fill="#ffffff" text-anchor="middle">C</text>
<rect x="278" y="353" width="20" height="24" rx="3" fill="#0d366b"/>
<text x="288.0" y="369.5" font-size="12.5" font-weight="bold" fill="#ffffff" text-anchor="middle">A</text>
<rect x="300" y="353" width="20" height="24" rx="3" fill="#1c5cab"/>
<text x="310.0" y="369.5" font-size="12.5" font-weight="bold" fill="#ffffff" text-anchor="middle">B</text>
<rect x="322" y="353" width="20" height="24" rx="3" fill="#1c5cab"/>
<text x="332.0" y="369.5" font-size="12.5" font-weight="bold" fill="#ffffff" text-anchor="middle">B</text>
<rect x="344" y="353" width="20" height="24" rx="3" fill="#3987e5"/>
<text x="354.0" y="369.5" font-size="12.5" font-weight="bold" fill="#ffffff" text-anchor="middle">C</text>
<rect x="366" y="353" width="20" height="24" rx="3" fill="#0d366b"/>
<text x="376.0" y="369.5" font-size="12.5" font-weight="bold" fill="#ffffff" text-anchor="middle">A</text>
<rect x="388" y="353" width="20" height="24" rx="3" fill="#1c5cab"/>
<text x="398.0" y="369.5" font-size="12.5" font-weight="bold" fill="#ffffff" text-anchor="middle">B</text>
<rect x="410" y="353" width="20" height="24" rx="3" fill="#1c5cab"/>
<text x="420.0" y="369.5" font-size="12.5" font-weight="bold" fill="#ffffff" text-anchor="middle">B</text>
<rect x="432" y="353" width="20" height="24" rx="3" fill="#3987e5"/>
<text x="442.0" y="369.5" font-size="12.5" font-weight="bold" fill="#ffffff" text-anchor="middle">C</text>
<rect x="572" y="353" width="20" height="24" rx="3" fill="#86b6ef"/>
<text x="582.0" y="369.5" font-size="12.5" font-weight="bold" fill="#0b0b0b" text-anchor="middle">D</text>
<rect x="594" y="353" width="20" height="24" rx="3" fill="#cde2fb"/>
<text x="604.0" y="369.5" font-size="12.5" font-weight="bold" fill="#0b0b0b" text-anchor="middle">E</text>
<rect x="616" y="353" width="20" height="24" rx="3" fill="#0d366b"/>
<text x="626.0" y="369.5" font-size="12.5" font-weight="bold" fill="#ffffff" text-anchor="middle">A</text>
<rect x="638" y="353" width="20" height="24" rx="3" fill="#1c5cab"/>
<text x="648.0" y="369.5" font-size="12.5" font-weight="bold" fill="#ffffff" text-anchor="middle">B</text>
<rect x="660" y="353" width="20" height="24" rx="3" fill="#1c5cab"/>
<text x="670.0" y="369.5" font-size="12.5" font-weight="bold" fill="#ffffff" text-anchor="middle">B</text>
<rect x="682" y="353" width="20" height="24" rx="3" fill="#3987e5"/>
<text x="692.0" y="369.5" font-size="12.5" font-weight="bold" fill="#ffffff" text-anchor="middle">C</text>
<rect x="704" y="353" width="20" height="24" rx="3" fill="#0d366b"/>
<text x="714.0" y="369.5" font-size="12.5" font-weight="bold" fill="#ffffff" text-anchor="middle">A</text>
<rect x="726" y="353" width="20" height="24" rx="3" fill="#1c5cab"/>
<text x="736.0" y="369.5" font-size="12.5" font-weight="bold" fill="#ffffff" text-anchor="middle">B</text>
<rect x="748" y="353" width="20" height="24" rx="3" fill="#1c5cab"/>
<text x="758.0" y="369.5" font-size="12.5" font-weight="bold" fill="#ffffff" text-anchor="middle">B</text>
<rect x="770" y="353" width="20" height="24" rx="3" fill="#3987e5"/>
<text x="780.0" y="369.5" font-size="12.5" font-weight="bold" fill="#ffffff" text-anchor="middle">C</text>
<rect x="792" y="353" width="20" height="24" rx="3" fill="#0d366b"/>
<text x="802.0" y="369.5" font-size="12.5" font-weight="bold" fill="#ffffff" text-anchor="middle">A</text>
<rect x="814" y="353" width="20" height="24" rx="3" fill="#1c5cab"/>
<text x="824.0" y="369.5" font-size="12.5" font-weight="bold" fill="#ffffff" text-anchor="middle">B</text>
<rect x="836" y="353" width="20" height="24" rx="3" fill="#1c5cab"/>
<text x="846.0" y="369.5" font-size="12.5" font-weight="bold" fill="#ffffff" text-anchor="middle">B</text>
<rect x="858" y="353" width="20" height="24" rx="3" fill="#3987e5"/>
<text x="868.0" y="369.5" font-size="12.5" font-weight="bold" fill="#ffffff" text-anchor="middle">C</text>
<rect x="880" y="353" width="20" height="24" rx="3" fill="#3987e5"/>
<text x="890.0" y="369.5" font-size="12.5" font-weight="bold" fill="#ffffff" text-anchor="middle">C</text>
<rect x="902" y="353" width="20" height="24" rx="3" fill="#86b6ef"/>
<text x="912.0" y="369.5" font-size="12.5" font-weight="bold" fill="#0b0b0b" text-anchor="middle">D</text>
<rect x="924" y="353" width="20" height="24" rx="3" fill="#86b6ef"/>
<text x="934.0" y="369.5" font-size="12.5" font-weight="bold" fill="#0b0b0b" text-anchor="middle">D</text>
<rect x="946" y="353" width="20" height="24" rx="3" fill="#cde2fb"/>
<text x="956.0" y="369.5" font-size="12.5" font-weight="bold" fill="#0b0b0b" text-anchor="middle">E</text>
<rect x="878" y="351" width="90" height="28" rx="4" fill="none" stroke="#eb6834" stroke-width="2.5"/>
<rect x="570" y="351" width="46" height="28" rx="4" fill="none" stroke="#eb6834" stroke-width="2.5"/>
<rect x="20" y="416" width="20" height="20" rx="3" fill="#0d366b"/><text x="30.0" y="431" font-size="11.5" font-weight="bold" fill="#ffffff" text-anchor="middle">A</text>
<rect x="54" y="416" width="20" height="20" rx="3" fill="#1c5cab"/><text x="64.0" y="431" font-size="11.5" font-weight="bold" fill="#ffffff" text-anchor="middle">B</text>
<rect x="88" y="416" width="20" height="20" rx="3" fill="#3987e5"/><text x="98.0" y="431" font-size="11.5" font-weight="bold" fill="#ffffff" text-anchor="middle">C</text>
<rect x="122" y="416" width="20" height="20" rx="3" fill="#86b6ef"/><text x="132.0" y="431" font-size="11.5" font-weight="bold" fill="#0b0b0b" text-anchor="middle">D</text>
<rect x="156" y="416" width="20" height="20" rx="3" fill="#cde2fb"/><text x="166.0" y="431" font-size="11.5" font-weight="bold" fill="#0b0b0b" text-anchor="middle">E</text>
<text x="196" y="431" font-size="12" fill="#52514e">category, strongest to weakest</text>
<rect x="420" y="415" width="44" height="22" rx="4" fill="none" stroke="#eb6834" stroke-width="2.5"/><text x="472" y="431" font-size="12" fill="#52514e">defect</text>
</svg>