<svg xmlns="http://www.w3.org/2000/svg" width="884" height="200" viewBox="0 0 884 200" font-family="Helvetica,Arial,sans-serif">
<rect width="884" height="200" fill="#fcfcfb"/>
<text x="30" y="20" font-size="13" fill="#0b0b0b">Of Theorem-3 type: runs of 2 wins (112 turns)</text>
<rect x="30" y="30" width="6" height="34" fill="#2a78d6"/>
<rect x="37" y="30" width="6" height="34" fill="#2a78d6"/>
<rect x="44" y="30" width="6" height="34" fill="#eb6834"/>
<rect x="51" y="30" width="6" height="34" fill="#eb6834"/>
<rect x="58" y="30" width="6" height="34" fill="#2a78d6"/>
<rect x="65" y="30" width="6" height="34" fill="#2a78d6"/>
<rect x="72" y="30" width="6" height="34" fill="#eb6834"/>
<rect x="79" y="30" width="6" height="34" fill="#eb6834"/>
<rect x="86" y="30" width="6" height="34" fill="#2a78d6"/>
<rect x="93" y="30" width="6" height="34" fill="#2a78d6"/>
<rect x="100" y="30" width="6" height="34" fill="#eb6834"/>
<rect x="107" y="30" width="6" height="34" fill="#eb6834"/>
<rect x="114" y="30" width="6" height="34" fill="#2a78d6"/>
<rect x="121" y="30" width="6" height="34" fill="#2a78d6"/>
<rect x="128" y="30" width="6" height="34" fill="#eb6834"/>
<rect x="135" y="30" width="6" height="34" fill="#eb6834"/>
<rect x="142" y="30" width="6" height="34" fill="#2a78d6"/>
<rect x="149" y="30" width="6" height="34" fill="#2a78d6"/>
<rect x="156" y="30" width="6" height="34" fill="#eb6834"/>
<rect x="163" y="30" width="6" height="34" fill="#eb6834"/>
<rect x="170" y="30" width="6" height="34" fill="#2a78d6"/>
<rect x="177" y="30" width="6" height="34" fill="#2a78d6"/>
<rect x="184" y="30" width="6" height="34" fill="#eb6834"/>
<rect x="191" y="30" width="6" height="34" fill="#eb6834"/>
<rect x="198" y="30" width="6" height="34" fill="#2a78d6"/>
<rect x="205" y="30" width="6" height="34" fill="#2a78d6"/>
<rect x="212" y="30" width="6" height="34" fill="#eb6834"/>
<rect x="219" y="30" width="6" height="34" fill="#eb6834"/>
<rect x="226" y="30" width="6" height="34" fill="#2a78d6"/>
<rect x="233" y="30" width="6" height="34" fill="#2a78d6"/>
<rect x="240" y="30" width="6" height="34" fill="#eb6834"/>
<rect x="247" y="30" width="6" height="34" fill="#eb6834"/>
<rect x="254" y="30" width="6" height="34" fill="#2a78d6"/>
<rect x="261" y="30" width="6" height="34" fill="#2a78d6"/>
<rect x="268" y="30" width="6" height="34" fill="#eb6834"/>
<rect x="275" y="30" width="6" height="34" fill="#eb6834"/>
<rect x="282" y="30" width="6" height="34" fill="#2a78d6"/>
<rect x="289" y="30" width="6" height="34" fill="#2a78d6"/>
<rect x="296" y="30" width="6" height="34" fill="#eb6834"/>
<rect x="303" y="30" width="6" height="34" fill="#eb6834"/>
<rect x="310" y="30" width="6" height="34" fill="#2a78d6"/>
<rect x="317" y="30" width="6" height="34" fill="#2a78d6"/>
<rect x="324" y="30" width="6" height="34" fill="#eb6834"/>
<rect x="331" y="30" width="6" height="34" fill="#eb6834"/>
<rect x="338" y="30" width="6" height="34" fill="#2a78d6"/>
<rect x="345" y="30" width="6" height="34" fill="#2a78d6"/>
<rect x="352" y="30" width="6" height="34" fill="#eb6834"/>
<rect x="359" y="30" width="6" height="34" fill="#eb6834"/>
<rect x="366" y="30" width="6" height="34" fill="#2a78d6"/>
<rect x="373" y="30" width="6" height="34" fill="#2a78d6"/>
<rect x="380" y="30" width="6" height="34" fill="#eb6834"/>
<rect x="387" y="30" width="6" height="34" fill="#eb6834"/>
<rect x="394" y="30" width="6" height="34" fill="#2a78d6"/>
<rect x="401" y="30" width="6" height="34" fill="#2a78d6"/>
<rect x="408" y="30" width="6" height="34" fill="#eb6834"/>
<rect x="415" y="30" width="6" height="34" fill="#eb6834"/>
<rect x="422" y="30" width="6" height="34" fill="#2a78d6"/>
<rect x="429" y="30" width="6" height="34" fill="#2a78d6"/>
<rect x="436" y="30" width="6" height="34" fill="#eb6834"/>
<rect x="443" y="30" width="6" height="34" fill="#eb6834"/>
<rect x="450" y="30" width="6" height="34" fill="#2a78d6"/>
<rect x="457" y="30" width="6" height="34" fill="#2a78d6"/>
<rect x="464" y="30" width="6" height="34" fill="#eb6834"/>
<rect x="471" y="30" width="6" height="34" fill="#eb6834"/>
<rect x="478" y="30" width="6" height="34" fill="#2a78d6"/>
<rect x="485" y="30" width="6" height="34" fill="#2a78d6"/>
<rect x="492" y="30" width="6" height="34" fill="#eb6834"/>
<rect x="499" y="30" width="6" height="34" fill="#eb6834"/>
<rect x="506" y="30" width="6" height="34" fill="#2a78d6"/>
<rect x="513" y="30" width="6" height="34" fill="#2a78d6"/>
<rect x="520" y="30" width="6" height="34" fill="#eb6834"/>
<rect x="527" y="30" width="6" height="34" fill="#eb6834"/>
<rect x="534" y="30" width="6" height="34" fill="#2a78d6"/>
<rect x="541" y="30" width="6" height="34" fill="#2a78d6"/>
<rect x="548" y="30" width="6" height="34" fill="#eb6834"/>
<rect x="555" y="30" width="6" height="34" fill="#eb6834"/>
<rect x="562" y="30" width="6" height="34" fill="#2a78d6"/>
<rect x="569" y="30" width="6" height="34" fill="#2a78d6"/>
<rect x="576" y="30" width="6" height="34" fill="#eb6834"/>
<rect x="583" y="30" width="6" height="34" fill="#eb6834"/>
<rect x="590" y="30" width="6" height="34" fill="#2a78d6"/>
<rect x="597" y="30" width="6" height="34" fill="#2a78d6"/>
<rect x="604" y="30" width="6" height="34" fill="#eb6834"/>
<rect x="611" y="30" width="6" height="34" fill="#eb6834"/>
<rect x="618" y="30" width="6" height="34" fill="#2a78d6"/>
<rect x="625" y="30" width="6" height="34" fill="#2a78d6"/>
<rect x="632" y="30" width="6" height="34" fill="#eb6834"/>
<rect x="639" y="30" width="6" height="34" fill="#eb6834"/>
<rect x="646" y="30" width="6" height="34" fill="#2a78d6"/>
<rect x="653" y="30" width="6" height="34" fill="#2a78d6"/>
<rect x="660" y="30" width="6" height="34" fill="#eb6834"/>
<rect x="667" y="30" width="6" height="34" fill="#eb6834"/>
<rect x="674" y="30" width="6" height="34" fill="#2a78d6"/>
<rect x="681" y="30" width="6" height="34" fill="#2a78d6"/>
<rect x="688" y="30" width="6" height="34" fill="#eb6834"/>
<rect x="695" y="30" width="6" height="34" fill="#eb6834"/>
<rect x="702" y="30" width="6" height="34" fill="#2a78d6"/>
<rect x="709" y="30" width="6" height="34" fill="#2a78d6"/>
<rect x="716" y="30" width="6" height="34" fill="#eb6834"/>
<rect x="723" y="30" width="6" height="34" fill="#eb6834"/>
<rect x="730" y="30" width="6" height="34" fill="#2a78d6"/>
<rect x="737" y="30" width="6" height="34" fill="#2a78d6"/>
<rect x="744" y="30" width="6" height="34" fill="#eb6834"/>
<rect x="751" y="30" width="6" height="34" fill="#eb6834"/>
<rect x="758" y="30" width="6" height="34" fill="#2a78d6"/>
<rect x="765" y="30" width="6" height="34" fill="#2a78d6"/>
<rect x="772" y="30" width="6" height="34" fill="#eb6834"/>
<rect x="779" y="30" width="6" height="34" fill="#eb6834"/>
<rect x="786" y="30" width="6" height="34" fill="#2a78d6"/>
<rect x="793" y="30" width="6" height="34" fill="#2a78d6"/>
<rect x="800" y="30" width="6" height="34" fill="#eb6834"/>
<rect x="807" y="30" width="6" height="34" fill="#eb6834"/>
<text x="30" y="104" font-size="13" fill="#0b0b0b">Not of Theorem-3 type: runs of 1 and 2 wins (96 turns)</text>
<rect x="30" y="114" width="6" height="34" fill="#eb6834"/>
<rect x="37" y="114" width="6" height="34" fill="#2a78d6"/>
<rect x="44" y="114" width="6" height="34" fill="#2a78d6"/>
<rect x="51" y="114" width="6" height="34" fill="#eb6834"/>
<rect x="58" y="114" width="6" height="34" fill="#eb6834"/>
<rect x="65" y="114" width="6" height="34" fill="#2a78d6"/>
<rect x="72" y="114" width="6" height="34" fill="#eb6834"/>
<rect x="79" y="114" width="6" height="34" fill="#2a78d6"/>
<rect x="86" y="114" width="6" height="34" fill="#eb6834"/>
<rect x="93" y="114" width="6" height="34" fill="#2a78d6"/>
<rect x="100" y="114" width="6" height="34" fill="#2a78d6"/>
<rect x="107" y="114" width="6" height="34" fill="#eb6834"/>
<rect x="114" y="114" width="6" height="34" fill="#eb6834"/>
<rect x="121" y="114" width="6" height="34" fill="#2a78d6"/>
<rect x="128" y="114" width="6" height="34" fill="#eb6834"/>
<rect x="135" y="114" width="6" height="34" fill="#2a78d6"/>
<rect x="142" y="114" width="6" height="34" fill="#eb6834"/>
<rect x="149" y="114" width="6" height="34" fill="#2a78d6"/>
<rect x="156" y="114" width="6" height="34" fill="#2a78d6"/>
<rect x="163" y="114" width="6" height="34" fill="#eb6834"/>
<rect x="170" y="114" width="6" height="34" fill="#eb6834"/>
<rect x="177" y="114" width="6" height="34" fill="#2a78d6"/>
<rect x="184" y="114" width="6" height="34" fill="#eb6834"/>
<rect x="191" y="114" width="6" height="34" fill="#2a78d6"/>
<rect x="198" y="114" width="6" height="34" fill="#eb6834"/>
<rect x="205" y="114" width="6" height="34" fill="#2a78d6"/>
<rect x="212" y="114" width="6" height="34" fill="#2a78d6"/>
<rect x="219" y="114" width="6" height="34" fill="#eb6834"/>
<rect x="226" y="114" width="6" height="34" fill="#eb6834"/>
<rect x="233" y="114" width="6" height="34" fill="#2a78d6"/>
<rect x="240" y="114" width="6" height="34" fill="#eb6834"/>
<rect x="247" y="114" width="6" height="34" fill="#2a78d6"/>
<rect x="254" y="114" width="6" height="34" fill="#eb6834"/>
<rect x="261" y="114" width="6" height="34" fill="#2a78d6"/>
<rect x="268" y="114" width="6" height="34" fill="#2a78d6"/>
<rect x="275" y="114" width="6" height="34" fill="#eb6834"/>
<rect x="282" y="114" width="6" height="34" fill="#eb6834"/>
<rect x="289" y="114" width="6" height="34" fill="#2a78d6"/>
<rect x="296" y="114" width="6" height="34" fill="#eb6834"/>
<rect x="303" y="114" width="6" height="34" fill="#2a78d6"/>
<rect x="310" y="114" width="6" height="34" fill="#eb6834"/>
<rect x="317" y="114" width="6" height="34" fill="#2a78d6"/>
<rect x="324" y="114" width="6" height="34" fill="#2a78d6"/>
<rect x="331" y="114" width="6" height="34" fill="#eb6834"/>
<rect x="338" y="114" width="6" height="34" fill="#eb6834"/>
<rect x="345" y="114" width="6" height="34" fill="#2a78d6"/>
<rect x="352" y="114" width="6" height="34" fill="#eb6834"/>
<rect x="359" y="114" width="6" height="34" fill="#2a78d6"/>
<rect x="366" y="114" width="6" height="34" fill="#eb6834"/>
<rect x="373" y="114" width="6" height="34" fill="#2a78d6"/>
<rect x="380" y="114" width="6" height="34" fill="#2a78d6"/>
<rect x="387" y="114" width="6" height="34" fill="#eb6834"/>
<rect x="394" y="114" width="6" height="34" fill="#eb6834"/>
<rect x="401" y="114" width="6" height="34" fill="#2a78d6"/>
<rect x="408" y="114" width="6" height="34" fill="#eb6834"/>
<rect x="415" y="114" width="6" height="34" fill="#2a78d6"/>
<rect x="422" y="114" width="6" height="34" fill="#eb6834"/>
<rect x="429" y="114" width="6" height="34" fill="#2a78d6"/>
<rect x="436" y="114" width="6" height="34" fill="#2a78d6"/>
<rect x="443" y="114" width="6" height="34" fill="#eb6834"/>
<rect x="450" y="114" width="6" height="34" fill="#eb6834"/>
<rect x="457" y="114" width="6" height="34" fill="#2a78d6"/>
<rect x="464" y="114" width="6" height="34" fill="#eb6834"/>
<rect x="471" y="114" width="6" height="34" fill="#2a78d6"/>
<rect x="478" y="114" width="6" height="34" fill="#eb6834"/>
<rect x="485" y="114" width="6" height="34" fill="#2a78d6"/>
<rect x="492" y="114" width="6" height="34" fill="#2a78d6"/>
<rect x="499" y="114" width="6" height="34" fill="#eb6834"/>
<rect x="506" y="114" width="6" height="34" fill="#eb6834"/>
<rect x="513" y="114" width="6" height="34" fill="#2a78d6"/>
<rect x="520" y="114" width="6" height="34" fill="#eb6834"/>
<rect x="527" y="114" width="6" height="34" fill="#2a78d6"/>
<rect x="534" y="114" width="6" height="34" fill="#eb6834"/>
<rect x="541" y="114" width="6" height="34" fill="#2a78d6"/>
<rect x="548" y="114" width="6" height="34" fill="#2a78d6"/>
<rect x="555" y="114" width="6" height="34" fill="#eb6834"/>
<rect x="562" y="114" width="6" height="34" fill="#eb6834"/>
<rect x="569" y="114" width="6" height="34" fill="#2a78d6"/>
<rect x="576" y="114" width="6" height="34" fill="#eb6834"/>
<rect x="583" y="114" width="6" height="34" fill="#2a78d6"/>
<rect x="590" y="114" width="6" height="34" fill="#eb6834"/>
<rect x="597" y="114" width="6" height="34" fill="#2a78d6"/>
<rect x="604" y="114" width="6" height="34" fill="#2a78d6"/>
<rect x="611" y="114" width="6" height="34" fill="#eb6834"/>
<rect x="618" y="114" width="6" height="34" fill="#eb6834"/>
<rect x="625" y="114" width="6" height="34" fill="#2a78d6"/>
<rect x="632" y="114" width="6" height="34" fill="#eb6834"/>
<rect x="639" y="114" width="6" height="34" fill="#2a78d6"/>
<rect x="646" y="114" width="6" height="34" fill="#eb6834"/>
<rect x="653" y="114" width="6" height="34" fill="#2a78d6"/>
<rect x="660" y="114" width="6" height="34" fill="#2a78d6"/>
<rect x="667" y="114" width="6" height="34" fill="#eb6834"/>
<rect x="674" y="114" width="6" height="34" fill="#eb6834"/>
<rect x="681" y="114" width="6" height="34" fill="#2a78d6"/>
<rect x="688" y="114" width="6" height="34" fill="#eb6834"/>
<rect x="695" y="114" width="6" height="34" fill="#2a78d6"/>
<rect x="30" y="170" width="12" height="12" fill="#2a78d6"/><text x="48" y="180" font-size="12.5" fill="#0b0b0b">player 1 wins the turn</text>
<rect x="230" y="170" width="12" height="12" fill="#eb6834"/><text x="248" y="180" font-size="12.5" fill="#0b0b0b">player 2 wins the turn</text>
</svg>